# police_car_no_lods.obj - PoliceCar hierarchy with no LODs yet
# Generated as a placeholder test fixture - not a real vehicle model.
v -2.2000 0.0000 4.5000
v 0.0000 0.0000 4.5000
v 2.2000 0.0000 4.5000
v -2.2000 0.6000 4.5000
v 0.0000 0.6000 4.5000
v 2.2000 0.6000 4.5000
v -2.2000 1.2000 4.5000
v 0.0000 1.2000 4.5000
v 2.2000 1.2000 4.5000
v -2.2000 0.0000 -4.5000
v 0.0000 0.0000 -4.5000
v 2.2000 0.0000 -4.5000
v -2.2000 0.6000 -4.5000
v 0.0000 0.6000 -4.5000
v 2.2000 0.6000 -4.5000
v -2.2000 1.2000 -4.5000
v 0.0000 1.2000 -4.5000
v 2.2000 1.2000 -4.5000
v 2.2000 0.0000 -4.5000
v 2.2000 0.6000 -4.5000
v 2.2000 1.2000 -4.5000
v 2.2000 0.0000 0.0000
v 2.2000 0.6000 0.0000
v 2.2000 1.2000 0.0000
v 2.2000 0.0000 4.5000
v 2.2000 0.6000 4.5000
v 2.2000 1.2000 4.5000
v -2.2000 0.0000 -4.5000
v -2.2000 0.6000 -4.5000
v -2.2000 1.2000 -4.5000
v -2.2000 0.0000 0.0000
v -2.2000 0.6000 0.0000
v -2.2000 1.2000 0.0000
v -2.2000 0.0000 4.5000
v -2.2000 0.6000 4.5000
v -2.2000 1.2000 4.5000
v -2.2000 1.2000 -4.5000
v 0.0000 1.2000 -4.5000
v 2.2000 1.2000 -4.5000
v -2.2000 1.2000 0.0000
v 0.0000 1.2000 0.0000
v 2.2000 1.2000 0.0000
v -2.2000 1.2000 4.5000
v 0.0000 1.2000 4.5000
v 2.2000 1.2000 4.5000
v -2.2000 0.0000 -4.5000
v 0.0000 0.0000 -4.5000
v 2.2000 0.0000 -4.5000
v -2.2000 0.0000 0.0000
v 0.0000 0.0000 0.0000
v 2.2000 0.0000 0.0000
v -2.2000 0.0000 4.5000
v 0.0000 0.0000 4.5000
v 2.2000 0.0000 4.5000
v -1.6000 0.5000 2.2000
v 1.6000 0.5000 2.2000
v -1.6000 1.3000 2.2000
v 1.6000 1.3000 2.2000
v -1.6000 0.5000 -1.8000
v 1.6000 0.5000 -1.8000
v -1.6000 1.3000 -1.8000
v 1.6000 1.3000 -1.8000
v 1.6000 0.5000 -1.8000
v 1.6000 1.3000 -1.8000
v 1.6000 0.5000 2.2000
v 1.6000 1.3000 2.2000
v -1.6000 0.5000 -1.8000
v -1.6000 1.3000 -1.8000
v -1.6000 0.5000 2.2000
v -1.6000 1.3000 2.2000
v -1.6000 1.3000 -1.8000
v 1.6000 1.3000 -1.8000
v -1.6000 1.3000 2.2000
v 1.6000 1.3000 2.2000
v -1.6000 0.5000 -1.8000
v 1.6000 0.5000 -1.8000
v -1.6000 0.5000 2.2000
v 1.6000 0.5000 2.2000
v -2.3000 0.0000 3.6000
v 2.3000 0.0000 3.6000
v -2.3000 0.7000 3.6000
v 2.3000 0.7000 3.6000
v -2.3000 0.0000 -3.6000
v 2.3000 0.0000 -3.6000
v -2.3000 0.7000 -3.6000
v 2.3000 0.7000 -3.6000
v 2.3000 0.0000 -3.6000
v 2.3000 0.7000 -3.6000
v 2.3000 0.0000 3.6000
v 2.3000 0.7000 3.6000
v -2.3000 0.0000 -3.6000
v -2.3000 0.7000 -3.6000
v -2.3000 0.0000 3.6000
v -2.3000 0.7000 3.6000
v -2.3000 0.7000 -3.6000
v 2.3000 0.7000 -3.6000
v -2.3000 0.7000 3.6000
v 2.3000 0.7000 3.6000
v -2.3000 0.0000 -3.6000
v 2.3000 0.0000 -3.6000
v -2.3000 0.0000 3.6000
v 2.3000 0.0000 3.6000
v -1.6000 0.6000 4.4500
v 1.6000 0.6000 4.4500
v -1.6000 0.9000 4.4500
v 1.6000 0.9000 4.4500
v -1.6000 0.6000 4.1500
v 1.6000 0.6000 4.1500
v -1.6000 0.9000 4.1500
v 1.6000 0.9000 4.1500
v 1.6000 0.6000 4.1500
v 1.6000 0.9000 4.1500
v 1.6000 0.6000 4.4500
v 1.6000 0.9000 4.4500
v -1.6000 0.6000 4.1500
v -1.6000 0.9000 4.1500
v -1.6000 0.6000 4.4500
v -1.6000 0.9000 4.4500
v -1.6000 0.9000 4.1500
v 1.6000 0.9000 4.1500
v -1.6000 0.9000 4.4500
v 1.6000 0.9000 4.4500
v -1.6000 0.6000 4.1500
v 1.6000 0.6000 4.1500
v -1.6000 0.6000 4.4500
v 1.6000 0.6000 4.4500
v -1.2000 0.3000 4.4000
v 1.2000 0.3000 4.4000
v -1.2000 0.8000 4.4000
v 1.2000 0.8000 4.4000
v -1.2000 0.3000 4.3000
v 1.2000 0.3000 4.3000
v -1.2000 0.8000 4.3000
v 1.2000 0.8000 4.3000
v 1.2000 0.3000 4.3000
v 1.2000 0.8000 4.3000
v 1.2000 0.3000 4.4000
v 1.2000 0.8000 4.4000
v -1.2000 0.3000 4.3000
v -1.2000 0.8000 4.3000
v -1.2000 0.3000 4.4000
v -1.2000 0.8000 4.4000
v -1.2000 0.8000 4.3000
v 1.2000 0.8000 4.3000
v -1.2000 0.8000 4.4000
v 1.2000 0.8000 4.4000
v -1.2000 0.3000 4.3000
v 1.2000 0.3000 4.3000
v -1.2000 0.3000 4.4000
v 1.2000 0.3000 4.4000
v -1.9000 0.1500 4.7000
v 1.9000 0.1500 4.7000
v -1.9000 0.7500 4.7000
v 1.9000 0.7500 4.7000
v -1.9000 0.1500 4.3000
v 1.9000 0.1500 4.3000
v -1.9000 0.7500 4.3000
v 1.9000 0.7500 4.3000
v 1.9000 0.1500 4.3000
v 1.9000 0.7500 4.3000
v 1.9000 0.1500 4.7000
v 1.9000 0.7500 4.7000
v -1.9000 0.1500 4.3000
v -1.9000 0.7500 4.3000
v -1.9000 0.1500 4.7000
v -1.9000 0.7500 4.7000
v -1.9000 0.7500 4.3000
v 1.9000 0.7500 4.3000
v -1.9000 0.7500 4.7000
v 1.9000 0.7500 4.7000
v -1.9000 0.1500 4.3000
v 1.9000 0.1500 4.3000
v -1.9000 0.1500 4.7000
v 1.9000 0.1500 4.7000
o Body
f 1 2 5
f 1 5 4
f 2 3 6
f 2 6 5
f 4 5 8
f 4 8 7
f 5 6 9
f 5 9 8
f 10 14 11
f 10 13 14
f 11 15 12
f 11 14 15
f 13 17 14
f 13 16 17
f 14 18 15
f 14 17 18
f 19 20 23
f 19 23 22
f 20 21 24
f 20 24 23
f 22 23 26
f 22 26 25
f 23 24 27
f 23 27 26
f 28 32 29
f 28 31 32
f 29 33 30
f 29 32 33
f 31 35 32
f 31 34 35
f 32 36 33
f 32 35 36
f 37 38 41
f 37 41 40
f 38 39 42
f 38 42 41
f 40 41 44
f 40 44 43
f 41 42 45
f 41 45 44
f 46 50 47
f 46 49 50
f 47 51 48
f 47 50 51
f 49 53 50
f 49 52 53
f 50 54 51
f 50 53 54
o Interior
f 55 56 58
f 55 58 57
f 59 62 60
f 59 61 62
f 63 64 66
f 63 66 65
f 67 70 68
f 67 69 70
f 71 72 74
f 71 74 73
f 75 78 76
f 75 77 78
o Wheels
f 79 80 82
f 79 82 81
f 83 86 84
f 83 85 86
f 87 88 90
f 87 90 89
f 91 94 92
f 91 93 94
f 95 96 98
f 95 98 97
f 99 102 100
f 99 101 102
o Lights
f 103 104 106
f 103 106 105
f 107 110 108
f 107 109 110
f 111 112 114
f 111 114 113
f 115 118 116
f 115 117 118
f 119 120 122
f 119 122 121
f 123 126 124
f 123 125 126
o Grille
f 127 128 130
f 127 130 129
f 131 134 132
f 131 133 134
f 135 136 138
f 135 138 137
f 139 142 140
f 139 141 142
f 143 144 146
f 143 146 145
f 147 150 148
f 147 149 150
o Bumper
f 151 152 154
f 151 154 153
f 155 158 156
f 155 157 158
f 159 160 162
f 159 162 161
f 163 166 164
f 163 165 166
f 167 168 170
f 167 170 169
f 171 174 172
f 171 173 174
