# truck_mixed_lods.obj - hierarchy with pre-existing, inconsistently named LODs
# Generated as a placeholder test fixture - not a real vehicle model.
v -1.2000 0.3000 1.0000
v -0.6000 0.3000 1.0000
v 0.0000 0.3000 1.0000
v 0.6000 0.3000 1.0000
v 1.2000 0.3000 1.0000
v -1.2000 0.7500 1.0000
v -0.6000 0.7500 1.0000
v 0.0000 0.7500 1.0000
v 0.6000 0.7500 1.0000
v 1.2000 0.7500 1.0000
v -1.2000 1.2000 1.0000
v -0.6000 1.2000 1.0000
v 0.0000 1.2000 1.0000
v 0.6000 1.2000 1.0000
v 1.2000 1.2000 1.0000
v -1.2000 1.6500 1.0000
v -0.6000 1.6500 1.0000
v 0.0000 1.6500 1.0000
v 0.6000 1.6500 1.0000
v 1.2000 1.6500 1.0000
v -1.2000 2.1000 1.0000
v -0.6000 2.1000 1.0000
v 0.0000 2.1000 1.0000
v 0.6000 2.1000 1.0000
v 1.2000 2.1000 1.0000
v -1.2000 0.3000 -3.0000
v -0.6000 0.3000 -3.0000
v 0.0000 0.3000 -3.0000
v 0.6000 0.3000 -3.0000
v 1.2000 0.3000 -3.0000
v -1.2000 0.7500 -3.0000
v -0.6000 0.7500 -3.0000
v 0.0000 0.7500 -3.0000
v 0.6000 0.7500 -3.0000
v 1.2000 0.7500 -3.0000
v -1.2000 1.2000 -3.0000
v -0.6000 1.2000 -3.0000
v 0.0000 1.2000 -3.0000
v 0.6000 1.2000 -3.0000
v 1.2000 1.2000 -3.0000
v -1.2000 1.6500 -3.0000
v -0.6000 1.6500 -3.0000
v 0.0000 1.6500 -3.0000
v 0.6000 1.6500 -3.0000
v 1.2000 1.6500 -3.0000
v -1.2000 2.1000 -3.0000
v -0.6000 2.1000 -3.0000
v 0.0000 2.1000 -3.0000
v 0.6000 2.1000 -3.0000
v 1.2000 2.1000 -3.0000
v 1.2000 0.3000 -3.0000
v 1.2000 0.7500 -3.0000
v 1.2000 1.2000 -3.0000
v 1.2000 1.6500 -3.0000
v 1.2000 2.1000 -3.0000
v 1.2000 0.3000 -2.0000
v 1.2000 0.7500 -2.0000
v 1.2000 1.2000 -2.0000
v 1.2000 1.6500 -2.0000
v 1.2000 2.1000 -2.0000
v 1.2000 0.3000 -1.0000
v 1.2000 0.7500 -1.0000
v 1.2000 1.2000 -1.0000
v 1.2000 1.6500 -1.0000
v 1.2000 2.1000 -1.0000
v 1.2000 0.3000 0.0000
v 1.2000 0.7500 0.0000
v 1.2000 1.2000 0.0000
v 1.2000 1.6500 0.0000
v 1.2000 2.1000 0.0000
v 1.2000 0.3000 1.0000
v 1.2000 0.7500 1.0000
v 1.2000 1.2000 1.0000
v 1.2000 1.6500 1.0000
v 1.2000 2.1000 1.0000
v -1.2000 0.3000 -3.0000
v -1.2000 0.7500 -3.0000
v -1.2000 1.2000 -3.0000
v -1.2000 1.6500 -3.0000
v -1.2000 2.1000 -3.0000
v -1.2000 0.3000 -2.0000
v -1.2000 0.7500 -2.0000
v -1.2000 1.2000 -2.0000
v -1.2000 1.6500 -2.0000
v -1.2000 2.1000 -2.0000
v -1.2000 0.3000 -1.0000
v -1.2000 0.7500 -1.0000
v -1.2000 1.2000 -1.0000
v -1.2000 1.6500 -1.0000
v -1.2000 2.1000 -1.0000
v -1.2000 0.3000 0.0000
v -1.2000 0.7500 0.0000
v -1.2000 1.2000 0.0000
v -1.2000 1.6500 0.0000
v -1.2000 2.1000 0.0000
v -1.2000 0.3000 1.0000
v -1.2000 0.7500 1.0000
v -1.2000 1.2000 1.0000
v -1.2000 1.6500 1.0000
v -1.2000 2.1000 1.0000
v -1.2000 2.1000 -3.0000
v -0.6000 2.1000 -3.0000
v 0.0000 2.1000 -3.0000
v 0.6000 2.1000 -3.0000
v 1.2000 2.1000 -3.0000
v -1.2000 2.1000 -2.0000
v -0.6000 2.1000 -2.0000
v 0.0000 2.1000 -2.0000
v 0.6000 2.1000 -2.0000
v 1.2000 2.1000 -2.0000
v -1.2000 2.1000 -1.0000
v -0.6000 2.1000 -1.0000
v 0.0000 2.1000 -1.0000
v 0.6000 2.1000 -1.0000
v 1.2000 2.1000 -1.0000
v -1.2000 2.1000 0.0000
v -0.6000 2.1000 0.0000
v 0.0000 2.1000 0.0000
v 0.6000 2.1000 0.0000
v 1.2000 2.1000 0.0000
v -1.2000 2.1000 1.0000
v -0.6000 2.1000 1.0000
v 0.0000 2.1000 1.0000
v 0.6000 2.1000 1.0000
v 1.2000 2.1000 1.0000
v -1.2000 0.3000 -3.0000
v -0.6000 0.3000 -3.0000
v 0.0000 0.3000 -3.0000
v 0.6000 0.3000 -3.0000
v 1.2000 0.3000 -3.0000
v -1.2000 0.3000 -2.0000
v -0.6000 0.3000 -2.0000
v 0.0000 0.3000 -2.0000
v 0.6000 0.3000 -2.0000
v 1.2000 0.3000 -2.0000
v -1.2000 0.3000 -1.0000
v -0.6000 0.3000 -1.0000
v 0.0000 0.3000 -1.0000
v 0.6000 0.3000 -1.0000
v 1.2000 0.3000 -1.0000
v -1.2000 0.3000 0.0000
v -0.6000 0.3000 0.0000
v 0.0000 0.3000 0.0000
v 0.6000 0.3000 0.0000
v 1.2000 0.3000 0.0000
v -1.2000 0.3000 1.0000
v -0.6000 0.3000 1.0000
v 0.0000 0.3000 1.0000
v 0.6000 0.3000 1.0000
v 1.2000 0.3000 1.0000
v -1.2000 0.3000 1.0000
v 1.2000 0.3000 1.0000
v -1.2000 2.1000 1.0000
v 1.2000 2.1000 1.0000
v -1.2000 0.3000 -3.0000
v 1.2000 0.3000 -3.0000
v -1.2000 2.1000 -3.0000
v 1.2000 2.1000 -3.0000
v 1.2000 0.3000 -3.0000
v 1.2000 2.1000 -3.0000
v 1.2000 0.3000 1.0000
v 1.2000 2.1000 1.0000
v -1.2000 0.3000 -3.0000
v -1.2000 2.1000 -3.0000
v -1.2000 0.3000 1.0000
v -1.2000 2.1000 1.0000
v -1.2000 2.1000 -3.0000
v 1.2000 2.1000 -3.0000
v -1.2000 2.1000 1.0000
v 1.2000 2.1000 1.0000
v -1.2000 0.3000 -3.0000
v 1.2000 0.3000 -3.0000
v -1.2000 0.3000 1.0000
v 1.2000 0.3000 1.0000
v -1.1000 0.2000 4.0000
v -0.3667 0.2000 4.0000
v 0.3667 0.2000 4.0000
v 1.1000 0.2000 4.0000
v -1.1000 0.4000 4.0000
v -0.3667 0.4000 4.0000
v 0.3667 0.4000 4.0000
v 1.1000 0.4000 4.0000
v -1.1000 0.6000 4.0000
v -0.3667 0.6000 4.0000
v 0.3667 0.6000 4.0000
v 1.1000 0.6000 4.0000
v -1.1000 0.8000 4.0000
v -0.3667 0.8000 4.0000
v 0.3667 0.8000 4.0000
v 1.1000 0.8000 4.0000
v -1.1000 0.2000 -3.0000
v -0.3667 0.2000 -3.0000
v 0.3667 0.2000 -3.0000
v 1.1000 0.2000 -3.0000
v -1.1000 0.4000 -3.0000
v -0.3667 0.4000 -3.0000
v 0.3667 0.4000 -3.0000
v 1.1000 0.4000 -3.0000
v -1.1000 0.6000 -3.0000
v -0.3667 0.6000 -3.0000
v 0.3667 0.6000 -3.0000
v 1.1000 0.6000 -3.0000
v -1.1000 0.8000 -3.0000
v -0.3667 0.8000 -3.0000
v 0.3667 0.8000 -3.0000
v 1.1000 0.8000 -3.0000
v 1.1000 0.2000 -3.0000
v 1.1000 0.4000 -3.0000
v 1.1000 0.6000 -3.0000
v 1.1000 0.8000 -3.0000
v 1.1000 0.2000 -0.6667
v 1.1000 0.4000 -0.6667
v 1.1000 0.6000 -0.6667
v 1.1000 0.8000 -0.6667
v 1.1000 0.2000 1.6667
v 1.1000 0.4000 1.6667
v 1.1000 0.6000 1.6667
v 1.1000 0.8000 1.6667
v 1.1000 0.2000 4.0000
v 1.1000 0.4000 4.0000
v 1.1000 0.6000 4.0000
v 1.1000 0.8000 4.0000
v -1.1000 0.2000 -3.0000
v -1.1000 0.4000 -3.0000
v -1.1000 0.6000 -3.0000
v -1.1000 0.8000 -3.0000
v -1.1000 0.2000 -0.6667
v -1.1000 0.4000 -0.6667
v -1.1000 0.6000 -0.6667
v -1.1000 0.8000 -0.6667
v -1.1000 0.2000 1.6667
v -1.1000 0.4000 1.6667
v -1.1000 0.6000 1.6667
v -1.1000 0.8000 1.6667
v -1.1000 0.2000 4.0000
v -1.1000 0.4000 4.0000
v -1.1000 0.6000 4.0000
v -1.1000 0.8000 4.0000
v -1.1000 0.8000 -3.0000
v -0.3667 0.8000 -3.0000
v 0.3667 0.8000 -3.0000
v 1.1000 0.8000 -3.0000
v -1.1000 0.8000 -0.6667
v -0.3667 0.8000 -0.6667
v 0.3667 0.8000 -0.6667
v 1.1000 0.8000 -0.6667
v -1.1000 0.8000 1.6667
v -0.3667 0.8000 1.6667
v 0.3667 0.8000 1.6667
v 1.1000 0.8000 1.6667
v -1.1000 0.8000 4.0000
v -0.3667 0.8000 4.0000
v 0.3667 0.8000 4.0000
v 1.1000 0.8000 4.0000
v -1.1000 0.2000 -3.0000
v -0.3667 0.2000 -3.0000
v 0.3667 0.2000 -3.0000
v 1.1000 0.2000 -3.0000
v -1.1000 0.2000 -0.6667
v -0.3667 0.2000 -0.6667
v 0.3667 0.2000 -0.6667
v 1.1000 0.2000 -0.6667
v -1.1000 0.2000 1.6667
v -0.3667 0.2000 1.6667
v 0.3667 0.2000 1.6667
v 1.1000 0.2000 1.6667
v -1.1000 0.2000 4.0000
v -0.3667 0.2000 4.0000
v 0.3667 0.2000 4.0000
v 1.1000 0.2000 4.0000
v -1.1000 0.2000 4.0000
v 1.1000 0.2000 4.0000
v -1.1000 0.8000 4.0000
v 1.1000 0.8000 4.0000
v -1.1000 0.2000 -3.0000
v 1.1000 0.2000 -3.0000
v -1.1000 0.8000 -3.0000
v 1.1000 0.8000 -3.0000
v 1.1000 0.2000 -3.0000
v 1.1000 0.8000 -3.0000
v 1.1000 0.2000 4.0000
v 1.1000 0.8000 4.0000
v -1.1000 0.2000 -3.0000
v -1.1000 0.8000 -3.0000
v -1.1000 0.2000 4.0000
v -1.1000 0.8000 4.0000
v -1.1000 0.8000 -3.0000
v 1.1000 0.8000 -3.0000
v -1.1000 0.8000 4.0000
v 1.1000 0.8000 4.0000
v -1.1000 0.2000 -3.0000
v 1.1000 0.2000 -3.0000
v -1.1000 0.2000 4.0000
v 1.1000 0.2000 4.0000
v -1.3000 0.2500 2.6000
v 0.0000 0.2500 2.6000
v 1.3000 0.2500 2.6000
v -1.3000 0.5000 2.6000
v 0.0000 0.5000 2.6000
v 1.3000 0.5000 2.6000
v -1.3000 0.7500 2.6000
v 0.0000 0.7500 2.6000
v 1.3000 0.7500 2.6000
v -1.3000 0.2500 2.2000
v 0.0000 0.2500 2.2000
v 1.3000 0.2500 2.2000
v -1.3000 0.5000 2.2000
v 0.0000 0.5000 2.2000
v 1.3000 0.5000 2.2000
v -1.3000 0.7500 2.2000
v 0.0000 0.7500 2.2000
v 1.3000 0.7500 2.2000
v 1.3000 0.2500 2.2000
v 1.3000 0.5000 2.2000
v 1.3000 0.7500 2.2000
v 1.3000 0.2500 2.4000
v 1.3000 0.5000 2.4000
v 1.3000 0.7500 2.4000
v 1.3000 0.2500 2.6000
v 1.3000 0.5000 2.6000
v 1.3000 0.7500 2.6000
v -1.3000 0.2500 2.2000
v -1.3000 0.5000 2.2000
v -1.3000 0.7500 2.2000
v -1.3000 0.2500 2.4000
v -1.3000 0.5000 2.4000
v -1.3000 0.7500 2.4000
v -1.3000 0.2500 2.6000
v -1.3000 0.5000 2.6000
v -1.3000 0.7500 2.6000
v -1.3000 0.7500 2.2000
v 0.0000 0.7500 2.2000
v 1.3000 0.7500 2.2000
v -1.3000 0.7500 2.4000
v 0.0000 0.7500 2.4000
v 1.3000 0.7500 2.4000
v -1.3000 0.7500 2.6000
v 0.0000 0.7500 2.6000
v 1.3000 0.7500 2.6000
v -1.3000 0.2500 2.2000
v 0.0000 0.2500 2.2000
v 1.3000 0.2500 2.2000
v -1.3000 0.2500 2.4000
v 0.0000 0.2500 2.4000
v 1.3000 0.2500 2.4000
v -1.3000 0.2500 2.6000
v 0.0000 0.2500 2.6000
v 1.3000 0.2500 2.6000
v -1.3000 0.2500 2.6000
v 1.3000 0.2500 2.6000
v -1.3000 0.7500 2.6000
v 1.3000 0.7500 2.6000
v -1.3000 0.2500 2.2000
v 1.3000 0.2500 2.2000
v -1.3000 0.7500 2.2000
v 1.3000 0.7500 2.2000
v 1.3000 0.2500 2.2000
v 1.3000 0.7500 2.2000
v 1.3000 0.2500 2.6000
v 1.3000 0.7500 2.6000
v -1.3000 0.2500 2.2000
v -1.3000 0.7500 2.2000
v -1.3000 0.2500 2.6000
v -1.3000 0.7500 2.6000
v -1.3000 0.7500 2.2000
v 1.3000 0.7500 2.2000
v -1.3000 0.7500 2.6000
v 1.3000 0.7500 2.6000
v -1.3000 0.2500 2.2000
v 1.3000 0.2500 2.2000
v -1.3000 0.2500 2.6000
v 1.3000 0.2500 2.6000
v -1.0000 0.6000 2.5000
v 1.0000 0.6000 2.5000
v -1.0000 1.2000 2.5000
v 1.0000 1.2000 2.5000
v -1.0000 0.6000 2.4000
v 1.0000 0.6000 2.4000
v -1.0000 1.2000 2.4000
v 1.0000 1.2000 2.4000
v 1.0000 0.6000 2.4000
v 1.0000 1.2000 2.4000
v 1.0000 0.6000 2.5000
v 1.0000 1.2000 2.5000
v -1.0000 0.6000 2.4000
v -1.0000 1.2000 2.4000
v -1.0000 0.6000 2.5000
v -1.0000 1.2000 2.5000
v -1.0000 1.2000 2.4000
v 1.0000 1.2000 2.4000
v -1.0000 1.2000 2.5000
v 1.0000 1.2000 2.5000
v -1.0000 0.6000 2.4000
v 1.0000 0.6000 2.4000
v -1.0000 0.6000 2.5000
v 1.0000 0.6000 2.5000
o Cab_high
f 1 2 7
f 1 7 6
f 2 3 8
f 2 8 7
f 3 4 9
f 3 9 8
f 4 5 10
f 4 10 9
f 6 7 12
f 6 12 11
f 7 8 13
f 7 13 12
f 8 9 14
f 8 14 13
f 9 10 15
f 9 15 14
f 11 12 17
f 11 17 16
f 12 13 18
f 12 18 17
f 13 14 19
f 13 19 18
f 14 15 20
f 14 20 19
f 16 17 22
f 16 22 21
f 17 18 23
f 17 23 22
f 18 19 24
f 18 24 23
f 19 20 25
f 19 25 24
f 26 32 27
f 26 31 32
f 27 33 28
f 27 32 33
f 28 34 29
f 28 33 34
f 29 35 30
f 29 34 35
f 31 37 32
f 31 36 37
f 32 38 33
f 32 37 38
f 33 39 34
f 33 38 39
f 34 40 35
f 34 39 40
f 36 42 37
f 36 41 42
f 37 43 38
f 37 42 43
f 38 44 39
f 38 43 44
f 39 45 40
f 39 44 45
f 41 47 42
f 41 46 47
f 42 48 43
f 42 47 48
f 43 49 44
f 43 48 49
f 44 50 45
f 44 49 50
f 51 52 57
f 51 57 56
f 52 53 58
f 52 58 57
f 53 54 59
f 53 59 58
f 54 55 60
f 54 60 59
f 56 57 62
f 56 62 61
f 57 58 63
f 57 63 62
f 58 59 64
f 58 64 63
f 59 60 65
f 59 65 64
f 61 62 67
f 61 67 66
f 62 63 68
f 62 68 67
f 63 64 69
f 63 69 68
f 64 65 70
f 64 70 69
f 66 67 72
f 66 72 71
f 67 68 73
f 67 73 72
f 68 69 74
f 68 74 73
f 69 70 75
f 69 75 74
f 76 82 77
f 76 81 82
f 77 83 78
f 77 82 83
f 78 84 79
f 78 83 84
f 79 85 80
f 79 84 85
f 81 87 82
f 81 86 87
f 82 88 83
f 82 87 88
f 83 89 84
f 83 88 89
f 84 90 85
f 84 89 90
f 86 92 87
f 86 91 92
f 87 93 88
f 87 92 93
f 88 94 89
f 88 93 94
f 89 95 90
f 89 94 95
f 91 97 92
f 91 96 97
f 92 98 93
f 92 97 98
f 93 99 94
f 93 98 99
f 94 100 95
f 94 99 100
f 101 102 107
f 101 107 106
f 102 103 108
f 102 108 107
f 103 104 109
f 103 109 108
f 104 105 110
f 104 110 109
f 106 107 112
f 106 112 111
f 107 108 113
f 107 113 112
f 108 109 114
f 108 114 113
f 109 110 115
f 109 115 114
f 111 112 117
f 111 117 116
f 112 113 118
f 112 118 117
f 113 114 119
f 113 119 118
f 114 115 120
f 114 120 119
f 116 117 122
f 116 122 121
f 117 118 123
f 117 123 122
f 118 119 124
f 118 124 123
f 119 120 125
f 119 125 124
f 126 132 127
f 126 131 132
f 127 133 128
f 127 132 133
f 128 134 129
f 128 133 134
f 129 135 130
f 129 134 135
f 131 137 132
f 131 136 137
f 132 138 133
f 132 137 138
f 133 139 134
f 133 138 139
f 134 140 135
f 134 139 140
f 136 142 137
f 136 141 142
f 137 143 138
f 137 142 143
f 138 144 139
f 138 143 144
f 139 145 140
f 139 144 145
f 141 147 142
f 141 146 147
f 142 148 143
f 142 147 148
f 143 149 144
f 143 148 149
f 144 150 145
f 144 149 150
o Cab_low
f 151 152 154
f 151 154 153
f 155 158 156
f 155 157 158
f 159 160 162
f 159 162 161
f 163 166 164
f 163 165 166
f 167 168 170
f 167 170 169
f 171 174 172
f 171 173 174
o Chassis.001
f 175 176 180
f 175 180 179
f 176 177 181
f 176 181 180
f 177 178 182
f 177 182 181
f 179 180 184
f 179 184 183
f 180 181 185
f 180 185 184
f 181 182 186
f 181 186 185
f 183 184 188
f 183 188 187
f 184 185 189
f 184 189 188
f 185 186 190
f 185 190 189
f 191 196 192
f 191 195 196
f 192 197 193
f 192 196 197
f 193 198 194
f 193 197 198
f 195 200 196
f 195 199 200
f 196 201 197
f 196 200 201
f 197 202 198
f 197 201 202
f 199 204 200
f 199 203 204
f 200 205 201
f 200 204 205
f 201 206 202
f 201 205 206
f 207 208 212
f 207 212 211
f 208 209 213
f 208 213 212
f 209 210 214
f 209 214 213
f 211 212 216
f 211 216 215
f 212 213 217
f 212 217 216
f 213 214 218
f 213 218 217
f 215 216 220
f 215 220 219
f 216 217 221
f 216 221 220
f 217 218 222
f 217 222 221
f 223 228 224
f 223 227 228
f 224 229 225
f 224 228 229
f 225 230 226
f 225 229 230
f 227 232 228
f 227 231 232
f 228 233 229
f 228 232 233
f 229 234 230
f 229 233 234
f 231 236 232
f 231 235 236
f 232 237 233
f 232 236 237
f 233 238 234
f 233 237 238
f 239 240 244
f 239 244 243
f 240 241 245
f 240 245 244
f 241 242 246
f 241 246 245
f 243 244 248
f 243 248 247
f 244 245 249
f 244 249 248
f 245 246 250
f 245 250 249
f 247 248 252
f 247 252 251
f 248 249 253
f 248 253 252
f 249 250 254
f 249 254 253
f 255 260 256
f 255 259 260
f 256 261 257
f 256 260 261
f 257 262 258
f 257 261 262
f 259 264 260
f 259 263 264
f 260 265 261
f 260 264 265
f 261 266 262
f 261 265 266
f 263 268 264
f 263 267 268
f 264 269 265
f 264 268 269
f 265 270 266
f 265 269 270
o Chassis.002
f 271 272 274
f 271 274 273
f 275 278 276
f 275 277 278
f 279 280 282
f 279 282 281
f 283 286 284
f 283 285 286
f 287 288 290
f 287 290 289
f 291 294 292
f 291 293 294
o Bumper_hp
f 295 296 299
f 295 299 298
f 296 297 300
f 296 300 299
f 298 299 302
f 298 302 301
f 299 300 303
f 299 303 302
f 304 308 305
f 304 307 308
f 305 309 306
f 305 308 309
f 307 311 308
f 307 310 311
f 308 312 309
f 308 311 312
f 313 314 317
f 313 317 316
f 314 315 318
f 314 318 317
f 316 317 320
f 316 320 319
f 317 318 321
f 317 321 320
f 322 326 323
f 322 325 326
f 323 327 324
f 323 326 327
f 325 329 326
f 325 328 329
f 326 330 327
f 326 329 330
f 331 332 335
f 331 335 334
f 332 333 336
f 332 336 335
f 334 335 338
f 334 338 337
f 335 336 339
f 335 339 338
f 340 344 341
f 340 343 344
f 341 345 342
f 341 344 345
f 343 347 344
f 343 346 347
f 344 348 345
f 344 347 348
o Bumper_mp
f 349 350 352
f 349 352 351
f 353 356 354
f 353 355 356
f 357 358 360
f 357 360 359
f 361 364 362
f 361 363 364
f 365 366 368
f 365 368 367
f 369 372 370
f 369 371 372
o Grille
f 373 374 376
f 373 376 375
f 377 380 378
f 377 379 380
f 381 382 384
f 381 384 383
f 385 388 386
f 385 387 388
f 389 390 392
f 389 392 391
f 393 396 394
f 393 395 396
